<svg xmlns="http://www.w3.org/2000/svg" version="1.1" xmlns:xlink="http://www.w3.org/1999/xlink" xmlns:svgjs="http://svgjs.dev/svgjs" width="1500" height="1500" viewBox="0 0 1500 1500"><rect width="1500" height="1500" fill="#293040"></rect><g transform="matrix(0.6666666666666666,0,0,0.6666666666666666,249.39393939393938,601.9475456350903)"><svg viewBox="0 0 396 117" data-background-color="#293040" preserveAspectRatio="xMidYMid meet" height="443" width="1500" xmlns="http://www.w3.org/2000/svg" xmlns:xlink="http://www.w3.org/1999/xlink"><g id="tight-bounds" transform="matrix(1,0,0,1,0.2400000000000091,0.15283462989089003)"><svg viewBox="0 0 395.52 116.69418458859676" height="116.69418458859676" width="395.52"><g><svg viewBox="0 0 611.2080738419138 180.3307741478281" height="116.69418458859676" width="395.52"><g transform="matrix(1,0,0,1,215.68807384191388,52.72267827030232)"><svg viewBox="0 0 395.52 74.88541760722346" height="74.88541760722346" width="395.52"><g id="textblocktransform"><svg viewBox="0 0 395.52 74.88541760722346" height="74.88541760722346" width="395.52" id="textblock"><g><svg viewBox="0 0 395.52 74.88541760722346" height="74.88541760722346" width="395.52"><g transform="matrix(1,0,0,1,0,0)"><svg width="395.52" viewBox="1.05 -32.9 177.19 33.55" height="74.88541760722346" data-palette-color="#d5b263"><path d="M15.7-10.9L15.7-10.9 12.15-10.9Q10.75-13 9.22-15.33 7.7-17.65 6.23-20.05 4.75-22.45 3.43-24.78 2.1-27.1 1.05-29.1L1.05-29.1Q1.25-29.65 1.8-30.18 2.35-30.7 3.25-30.7L3.25-30.7Q4.2-30.7 4.73-30.2 5.25-29.7 5.8-28.7L5.8-28.7Q6.6-27.3 7.68-25.43 8.75-23.55 9.9-21.55 11.05-19.55 12.08-17.75 13.1-15.95 13.85-14.75L13.85-14.75 14.05-14.75Q15.8-17.65 17.25-20.25 18.7-22.85 20.05-25.35 21.4-27.85 22.7-30.35L22.7-30.35Q23-30.55 23.45-30.63 23.9-30.7 24.25-30.7L24.25-30.7Q25.2-30.7 25.68-30.25 26.15-29.8 26.15-29L26.15-29Q26.15-28.5 25.38-26.88 24.6-25.25 23.2-22.83 21.8-20.4 19.9-17.35 18-14.3 15.7-10.9ZM11.9-1.6L11.9-12.85 15.95-12.85 15.95-0.1Q15.7 0 15.18 0.13 14.65 0.25 14.1 0.25L14.1 0.25Q13 0.25 12.45-0.2 11.9-0.65 11.9-1.6L11.9-1.6ZM49.5-11.35L32.7-9 32.5-12.15 47.6-14.2Q47.4-16.95 45.7-18.73 44-20.5 41-20.5L41-20.5Q37.9-20.5 35.87-18.28 33.85-16.05 33.85-11.9L33.85-11.9 33.85-10.8Q34.2-6.8 36.47-4.73 38.75-2.65 42.7-2.65L42.7-2.65Q44.8-2.65 46.5-3.35 48.2-4.05 49.2-4.85L49.2-4.85Q49.75-4.5 50.07-4.03 50.4-3.55 50.4-2.95L50.4-2.95Q50.4-2 49.32-1.18 48.25-0.35 46.47 0.15 44.7 0.65 42.5 0.65L42.5 0.65Q38.65 0.65 35.82-0.75 33-2.15 31.47-4.93 29.95-7.7 29.95-11.7L29.95-11.7Q29.95-14.55 30.77-16.78 31.6-19 33.07-20.55 34.55-22.1 36.6-22.93 38.65-23.75 41.05-23.75L41.05-23.75Q44.1-23.75 46.42-22.45 48.75-21.15 50.07-18.82 51.4-16.5 51.4-13.5L51.4-13.5Q51.4-12.4 50.9-11.93 50.4-11.45 49.5-11.35L49.5-11.35ZM73.5-6.15L73.5-6.15Q73.5-2.95 71.15-1.15 68.8 0.65 64.35 0.65L64.35 0.65Q60.55 0.65 58.15-0.53 55.75-1.7 55.75-3.1L55.75-3.1Q55.75-3.7 56.07-4.28 56.4-4.85 57.05-5.2L57.05-5.2Q58.4-4.25 60.2-3.45 62-2.65 64.3-2.65L64.3-2.65Q69.5-2.65 69.5-6.15L69.5-6.15Q69.5-7.6 68.62-8.53 67.75-9.45 66.05-9.85L66.05-9.85 61.9-10.95Q58.85-11.7 57.45-13.28 56.05-14.85 56.05-17.2L56.05-17.2Q56.05-19.85 58.2-21.8 60.35-23.75 64.75-23.75L64.75-23.75Q67.1-23.75 68.85-23.28 70.6-22.8 71.57-22.03 72.55-21.25 72.55-20.35L72.55-20.35Q72.55-19.7 72.22-19.2 71.9-18.7 71.35-18.45L71.35-18.45Q70.75-18.85 69.82-19.33 68.9-19.8 67.65-20.13 66.4-20.45 64.9-20.45L64.9-20.45Q62.7-20.45 61.35-19.6 60-18.75 60-17.2L60-17.2Q60-16.1 60.77-15.28 61.55-14.45 63.25-14.05L63.25-14.05 66.7-13.2Q70.1-12.4 71.8-10.68 73.5-8.95 73.5-6.15ZM97.54-7.9L97.54-7.9Q97.19-7.65 96.62-7.45 96.04-7.25 95.34-7.25L95.34-7.25Q94.54-7.25 93.92-7.5 93.29-7.75 93.04-8.3L93.04-8.3Q90.39-13.9 88.42-18.55 86.44-23.2 85.24-26.25L85.24-26.25 85.04-26.25Q84.89-22.5 84.72-19.25 84.54-16 84.34-12.98 84.14-9.95 83.97-6.78 83.79-3.6 83.54 0L83.54 0Q83.24 0.1 82.77 0.2 82.29 0.3 81.74 0.3L81.74 0.3Q80.64 0.3 80.19-0.18 79.74-0.65 79.74-1.45L79.74-1.45Q79.74-2.05 79.87-4.23 79.99-6.4 80.17-9.55 80.34-12.7 80.59-16.28 80.84-19.85 81.12-23.33 81.39-26.8 81.64-29.6L81.64-29.6Q82.04-29.95 82.79-30.25 83.54-30.55 84.49-30.55L84.49-30.55Q85.64-30.55 86.44-30.1 87.24-29.65 87.69-28.7L87.69-28.7Q88.99-26.15 90.29-23.15 91.59-20.15 92.84-17.15 94.09-14.15 95.24-11.5L95.24-11.5 95.44-11.5Q97.64-16.8 99.82-21.7 101.99-26.6 103.49-30.05L103.49-30.05Q103.94-30.3 104.64-30.43 105.34-30.55 105.94-30.55L105.94-30.55Q107.09-30.55 107.77-30.18 108.44-29.8 108.64-28.95L108.64-28.95Q108.84-28.1 109.09-26.05 109.34-24 109.59-21.23 109.84-18.45 110.07-15.4 110.29-12.35 110.49-9.4 110.69-6.45 110.87-4.08 111.04-1.7 111.09-0.3L111.09-0.3Q110.64 0 110.14 0.15 109.64 0.3 108.99 0.3L108.99 0.3Q108.24 0.3 107.67-0.08 107.09-0.45 106.99-1.45L106.99-1.45Q106.69-6.3 106.42-11.03 106.14-15.75 105.94-19.7 105.74-23.65 105.59-26.15L105.59-26.15 105.39-26.15Q104.29-23.4 102.39-19.07 100.49-14.75 97.54-7.9ZM118.19-30.4L118.19-30.4Q118.19-31.45 118.94-32.18 119.69-32.9 120.79-32.9L120.79-32.9Q121.94-32.9 122.64-32.18 123.34-31.45 123.34-30.4L123.34-30.4Q123.34-29.35 122.64-28.63 121.94-27.9 120.79-27.9L120.79-27.9Q119.69-27.9 118.94-28.63 118.19-29.35 118.19-30.4ZM118.79-1.55L118.79-13.2 122.79-13.2 122.79-0.1Q122.54 0 122.04 0.13 121.54 0.25 120.94 0.25L120.94 0.25Q119.89 0.25 119.34-0.18 118.79-0.6 118.79-1.55L118.79-1.55ZM122.79-21.5L122.79-11.25 118.79-11.25 118.79-23Q119.04-23.1 119.57-23.23 120.09-23.35 120.69-23.35L120.69-23.35Q121.74-23.35 122.27-22.93 122.79-22.5 122.79-21.5L122.79-21.5ZM150.59-15.25L150.59-15.25 150.59-10.15 146.59-10.15 146.59-15.05Q146.59-17.85 145.01-19.15 143.44-20.45 140.79-20.45L140.79-20.45Q138.79-20.45 137.24-19.95 135.69-19.45 134.59-18.8L134.59-18.8 134.59-10.15 130.59-10.15 130.59-18.6Q130.59-19.65 131.01-20.33 131.44-21 132.49-21.65L132.49-21.65Q133.79-22.4 135.94-23.08 138.09-23.75 140.79-23.75L140.79-23.75Q145.34-23.75 147.96-21.68 150.59-19.6 150.59-15.25ZM130.59-1.55L130.59-12.9 134.59-12.9 134.59-0.1Q134.34 0 133.84 0.13 133.34 0.25 132.74 0.25L132.74 0.25Q131.69 0.25 131.14-0.18 130.59-0.6 130.59-1.55L130.59-1.55ZM146.59-1.55L146.59-12.9 150.59-12.9 150.59-0.1Q150.34 0 149.81 0.13 149.29 0.25 148.74 0.25L148.74 0.25Q147.64 0.25 147.11-0.18 146.59-0.6 146.59-1.55L146.59-1.55ZM176.34-11.35L159.54-9 159.34-12.15 174.44-14.2Q174.24-16.95 172.54-18.73 170.84-20.5 167.84-20.5L167.84-20.5Q164.74-20.5 162.71-18.28 160.69-16.05 160.69-11.9L160.69-11.9 160.69-10.8Q161.04-6.8 163.31-4.73 165.59-2.65 169.54-2.65L169.54-2.65Q171.64-2.65 173.34-3.35 175.04-4.05 176.04-4.85L176.04-4.85Q176.59-4.5 176.91-4.03 177.24-3.55 177.24-2.95L177.24-2.95Q177.24-2 176.16-1.18 175.09-0.35 173.31 0.15 171.54 0.65 169.34 0.65L169.34 0.65Q165.49 0.65 162.66-0.75 159.84-2.15 158.31-4.93 156.79-7.7 156.79-11.7L156.79-11.7Q156.79-14.55 157.61-16.78 158.44-19 159.91-20.55 161.39-22.1 163.44-22.93 165.49-23.75 167.89-23.75L167.89-23.75Q170.94-23.75 173.26-22.45 175.59-21.15 176.91-18.82 178.24-16.5 178.24-13.5L178.24-13.5Q178.24-12.4 177.74-11.93 177.24-11.45 176.34-11.35L176.34-11.35Z" opacity="1" transform="matrix(1,0,0,1,0,0)" fill="#d5b263" class="wordmark-text-0" data-fill-palette-color="primary" id="text-0"></path></svg></g></svg></g></svg></g></svg></g><g><svg viewBox="0 0 180.3307741478281 180.3307741478281" height="180.3307741478281" width="180.3307741478281"><g><svg></svg></g><g id="icon-0"><svg viewBox="0 0 180.3307741478281 180.3307741478281" height="180.3307741478281" width="180.3307741478281"><g><path d="M0 90.165c0-49.797 40.368-90.165 90.165-90.165 49.797 0 90.165 40.368 90.166 90.165 0 49.797-40.368 90.165-90.166 90.166-49.797 0-90.165-40.368-90.165-90.166zM90.165 173.578c46.067 0 83.412-37.345 83.413-83.413 0-46.067-37.345-83.412-83.413-83.412-46.067 0-83.412 37.345-83.412 83.412 0 46.067 37.345 83.412 83.412 83.413z" data-fill-palette-color="accent" fill="#d5b263" stroke="transparent"></path></g><g transform="matrix(1,0,0,1,39.82604885339549,39.82604885339549)"><svg viewBox="0 0 100.67867644103711 100.67867644103711" height="100.67867644103711" width="100.67867644103711"><g><svg xmlns="http://www.w3.org/2000/svg" xmlns:xlink="http://www.w3.org/1999/xlink" version="1.1" x="0" y="0" viewBox="0 0 96 96" enable-background="new 0 0 96 96" xml:space="preserve" height="100.67867644103711" width="100.67867644103711" class="icon-dxe-0" data-fill-palette-color="accent" id="dxe-0"><path d="M48 0C21.492 0 0 21.492 0 48S21.492 96 48 96 96 74.508 96 48 74.508 0 48 0M69.752 29.104L45.752 65.271A2.01 2.01 0 0 1 44.088 66.168 2.03 2.03 0 0 1 42.672 65.584L26.5 49.416A2 2 0 0 1 26.5 46.588C27.28 45.808 28.548 45.808 29.328 46.588L43.772 61.024 66.42 26.896A1.998 1.998 0 0 1 69.752 29.104" fill="#d5b263" data-fill-palette-color="accent"></path></svg></g></svg></g></svg></g></svg></g></svg></g><defs></defs></svg><rect width="395.52" height="116.69418458859676" fill="none" stroke="none" visibility="hidden"></rect></g></svg></g></svg>